<?xml version="1.0" encoding="UTF-8"?>
<svg xmlns="http://www.w3.org/2000/svg" xmlns:xlink="http://www.w3.org/1999/xlink" width="32px" height="32px" viewBox="0 0 32 32" version="1.1">
<defs>
<linearGradient id="linear0" gradientUnits="userSpaceOnUse" x1="0" y1="0" x2="1" y2="0" gradientTransform="matrix(25.040063,0,0,25.039957,3.508797,16.025122)">
<stop offset="0" style="stop-color:rgb(60.784314%,57.254902%,55.294118%);stop-opacity:1;"/>
<stop offset="1" style="stop-color:rgb(27.058824%,29.803922%,32.941176%);stop-opacity:1;"/>
</linearGradient>
</defs>
<g id="surface1">
<path style=" stroke:none;fill-rule:evenodd;fill:url(#linear0);" d="M 17.949219 7.230469 C 19.011719 7.460938 20.003906 7.878906 20.886719 8.449219 L 23.523438 5.816406 L 26.238281 8.53125 L 23.605469 11.164062 C 24.171875 12.050781 24.59375 13.042969 24.824219 14.105469 L 28.550781 14.105469 L 28.550781 17.945312 L 24.824219 17.945312 C 24.59375 19.007812 24.171875 20 23.605469 20.882812 L 26.238281 23.519531 L 23.523438 26.234375 L 20.886719 23.601562 C 20.003906 24.167969 19.011719 24.589844 17.949219 24.820312 L 17.949219 28.546875 L 14.109375 28.546875 L 14.109375 24.820312 C 13.046875 24.589844 12.054688 24.167969 11.167969 23.601562 L 8.535156 26.234375 L 5.816406 23.519531 L 8.453125 20.882812 C 7.882812 20 7.464844 19.007812 7.234375 17.945312 L 3.507812 17.945312 L 3.507812 14.105469 L 7.234375 14.105469 C 7.464844 13.042969 7.882812 12.050781 8.453125 11.164062 L 5.816406 8.53125 L 8.535156 5.816406 L 11.167969 8.449219 C 12.054688 7.878906 13.046875 7.460938 14.109375 7.230469 L 14.109375 3.503906 L 17.949219 3.503906 Z M 16.027344 11.023438 C 18.789062 11.023438 21.027344 13.265625 21.027344 16.023438 C 21.027344 18.785156 18.789062 21.023438 16.027344 21.023438 C 13.269531 21.023438 11.027344 18.785156 11.027344 16.023438 C 11.027344 13.265625 13.269531 11.023438 16.027344 11.023438 Z M 16.027344 11.023438 "/>
</g>
</svg>
